<?xml version="1.0" standalone="no"?>
<svg xmlns:xlink="http://www.w3.org/1999/xlink" id="wave" style="transform:rotate(0deg); transition: 0.3s" viewBox="0 0 1440 310" version="1.1" xmlns="http://www.w3.org/2000/svg"><defs><linearGradient id="sw-gradient-0" x1="0" x2="0" y1="1" y2="0"><stop stop-color="rgba(255, 243, 211, 1)" offset="0%"/><stop stop-color="rgba(255, 243, 211, 1)" offset="100%"/></linearGradient></defs><path style="transform:translate(0, 0px); opacity:1" fill="url(#sw-gradient-0)" d="M0,186L80,165.3C160,145,320,103,480,98.2C640,93,800,124,960,134.3C1120,145,1280,134,1440,129.2C1600,124,1760,124,1920,113.7C2080,103,2240,83,2400,98.2C2560,114,2720,165,2880,165.3C3040,165,3200,114,3360,118.8C3520,124,3680,186,3840,191.2C4000,196,4160,145,4320,144.7C4480,145,4640,196,4800,206.7C4960,217,5120,186,5280,144.7C5440,103,5600,52,5760,51.7C5920,52,6080,103,6240,103.3C6400,103,6560,52,6720,41.3C6880,31,7040,62,7200,98.2C7360,134,7520,176,7680,191.2C7840,207,8000,196,8160,186C8320,176,8480,165,8640,139.5C8800,114,8960,72,9120,82.7C9280,93,9440,155,9600,160.2C9760,165,9920,114,10080,77.5C10240,41,10400,21,10560,15.5C10720,10,10880,21,11040,51.7C11200,83,11360,134,11440,160.2L11520,186L11520,310L11440,310C11360,310,11200,310,11040,310C10880,310,10720,310,10560,310C10400,310,10240,310,10080,310C9920,310,9760,310,9600,310C9440,310,9280,310,9120,310C8960,310,8800,310,8640,310C8480,310,8320,310,8160,310C8000,310,7840,310,7680,310C7520,310,7360,310,7200,310C7040,310,6880,310,6720,310C6560,310,6400,310,6240,310C6080,310,5920,310,5760,310C5600,310,5440,310,5280,310C5120,310,4960,310,4800,310C4640,310,4480,310,4320,310C4160,310,4000,310,3840,310C3680,310,3520,310,3360,310C3200,310,3040,310,2880,310C2720,310,2560,310,2400,310C2240,310,2080,310,1920,310C1760,310,1600,310,1440,310C1280,310,1120,310,960,310C800,310,640,310,480,310C320,310,160,310,80,310L0,310Z"/></svg>